<?xml version="1.0" encoding="UTF-8" standalone="no"?>
<!DOCTYPE svg PUBLIC "-//W3C//DTD SVG 1.1//EN" "http://www.w3.org/Graphics/SVG/1.1/DTD/svg11.dtd">
<svg width="100%" height="100%" viewBox="0 0 1772 1772" version="1.1" xmlns="http://www.w3.org/2000/svg" xmlns:xlink="http://www.w3.org/1999/xlink" xml:space="preserve" xmlns:serif="http://www.serif.com/" style="fill-rule:evenodd;clip-rule:evenodd;stroke-linejoin:round;stroke-miterlimit:2;">
    <g id="Pixel-Perfect-Dark" serif:id="Pixel Perfect Dark" transform="matrix(4.16667,0,0,4.16667,-2359.22,-2071.19)">
        <g id="Background" transform="matrix(1.63884,0,0,1.63884,-500.622,-397.958)">
            <path d="M780.695,631.936L818.742,653.903L818.742,697.837L780.695,719.803L742.647,697.837L742.647,653.903L780.695,631.936Z" style="fill:rgb(50,50,50);"/>
        </g>
        <g transform="matrix(2.18395,0,0,2.18395,745.13,650.492)">
            <rect x="11.005" y="10.62" width="32.968" height="32.968" style="fill:rgb(255,161,155);fill-opacity:0.8;"/>
        </g>
        <g transform="matrix(-1.09197,1.89135,-1.89135,-1.09197,873.269,664.466)">
            <rect x="11.005" y="10.62" width="32.968" height="32.968" style="fill:rgb(202,124,152);fill-opacity:0.8;"/>
        </g>
        <g transform="matrix(1.09197,1.89135,1.89135,-1.09197,684.354,664.466)">
            <rect x="11.005" y="10.62" width="32.968" height="32.968" style="fill:rgb(141,92,131);fill-opacity:0.8;"/>
        </g>
        <g transform="matrix(2.18395,0,0,2.18395,692.422,650.492)">
            <rect x="11.005" y="10.62" width="32.968" height="32.968" style="fill:rgb(85,56,100);fill-opacity:0.8;"/>
        </g>
        <g transform="matrix(1.09197,-1.89135,1.89135,1.09197,684.354,754.904)">
            <rect x="11.005" y="10.62" width="32.968" height="32.968" style="fill:rgb(55,42,80);fill-opacity:0.8;"/>
        </g>
        <g transform="matrix(-1.09197,-1.89135,-1.89135,1.09197,873.269,754.904)">
            <rect x="11.005" y="10.62" width="32.968" height="32.968" style="fill:rgb(40,32,68);fill-opacity:0.8;"/>
        </g>
    </g>
</svg>
