<?xml version="1.0" encoding="UTF-8" standalone="no"?>
<!DOCTYPE svg PUBLIC "-//W3C//DTD SVG 1.1//EN" "http://www.w3.org/Graphics/SVG/1.1/DTD/svg11.dtd">
<svg width="100%" height="100%" viewBox="0 0 222 256" version="1.1" xmlns="http://www.w3.org/2000/svg" xmlns:xlink="http://www.w3.org/1999/xlink" xml:space="preserve" xmlns:serif="http://www.serif.com/" style="fill-rule:evenodd;clip-rule:evenodd;stroke-linejoin:round;stroke-miterlimit:2;">
    <g transform="matrix(1,0,0,1,-401.138,-384)">
        <g transform="matrix(0.523105,0,0,0.71974,214.61,230.204)">
            <g transform="matrix(3.3114,0,0,2.40672,356.58,213.683)">
                <path id="Layer_2" d="M64,0L0,36.944L0,110.844L64,147.788L128,110.844L128,36.944L64,0Z" style="fill:url(#_Linear1);fill-rule:nonzero;"/>
                <g id="Layer_1_1_">
                    <path d="M128,110.844L128,36.944L106.659,73.9L128,110.844Z" style="fill:rgb(248,181,100);fill-rule:nonzero;"/>
                    <path d="M64,0L85.329,36.944L128,36.944L64,0Z" style="fill:rgb(166,128,176);fill-rule:nonzero;"/>
                    <path d="M85.33,36.944L100.944,64L106.659,73.9L128,36.944L85.33,36.944Z" style="fill:rgb(208,155,137);fill-rule:nonzero;"/>
                    <path d="M64,0L0,36.944L42.67,36.944L64,0Z" style="fill:rgb(81,71,232);fill-rule:nonzero;"/>
                    <path d="M64,0L42.67,36.944L85.329,36.944L64,0Z" style="fill:rgb(87,76,250);fill-rule:nonzero;"/>
                    <path d="M85.329,36.944L73.9,36.944L73.9,56.755L91.044,46.844L85.329,36.944Z" style="fill:rgb(99,84,239);fill-rule:nonzero;"/>
                    <path d="M0,36.944L0,110.844L21.341,73.9L0,36.944Z" style="fill:rgb(65,57,185);fill-rule:nonzero;"/>
                    <path d="M42.67,36.944L0,36.944L21.341,73.9L27.056,64L42.67,36.944Z" style="fill:rgb(68,59,194);fill-rule:nonzero;"/>
                    <path d="M42.67,36.944L36.956,46.844L54.1,56.743L54.1,36.944L42.67,36.944Z" style="fill:rgb(71,62,203);fill-rule:nonzero;"/>
                    <path d="M54.1,36.944L54.1,56.743L64,62.47L73.9,56.755L73.9,36.944L54.1,36.944Z" style="fill:rgb(74,65,213);fill-rule:nonzero;"/>
                    <path d="M64,147.788L42.67,110.844L0,110.844L64,147.788Z" style="fill:rgb(52,46,150);fill-rule:nonzero;"/>
                    <path d="M27.056,83.799L21.341,73.9L0,110.844L42.67,110.844L27.056,83.799Z" style="fill:rgb(58,51,167);fill-rule:nonzero;"/>
                    <path d="M27.056,64L21.341,73.9L27.056,83.799L44.201,73.9L27.056,64Z" style="fill:rgb(62,54,176);fill-rule:nonzero;"/>
                    <path d="M36.956,46.844L27.056,64L44.201,73.9L54.1,68.185L54.1,56.743L36.956,46.844Z" style="fill:rgb(62,54,176);fill-rule:nonzero;"/>
                    <path d="M54.1,56.743L54.1,68.185L64,62.47L54.1,56.743Z" style="fill:rgb(62,54,176);fill-rule:nonzero;"/>
                    <path d="M128,110.844L85.329,110.844L64,147.788L128,110.844Z" style="fill:rgb(37,31,104);fill-rule:nonzero;"/>
                    <path d="M128,110.844L106.659,73.9L100.944,83.799L85.33,110.844L128,110.844Z" style="fill:rgb(62,54,176);fill-rule:nonzero;"/>
                    <path d="M100.944,64L83.799,73.9L100.944,83.799L106.659,73.9L100.944,64Z" style="fill:rgb(56,49,159);fill-rule:nonzero;"/>
                    <path d="M91.044,46.844L73.9,56.755L73.9,68.185L83.799,73.9L100.944,64L91.044,46.844Z" style="fill:rgb(56,49,159);fill-rule:nonzero;"/>
                    <path d="M64,62.47L73.9,68.185L73.9,56.755L64,62.47Z" style="fill:rgb(52,46,150);fill-rule:nonzero;"/>
                    <path d="M85.329,110.844L42.67,110.844L64,147.788L85.329,110.844Z" style="fill:rgb(33,28,95);fill-rule:nonzero;"/>
                    <path d="M91.044,100.944L73.9,91.044L73.9,110.844L85.33,110.844L91.044,100.944Z" style="fill:rgb(49,43,141);fill-rule:nonzero;"/>
                    <path d="M83.799,73.9L73.9,79.615L73.9,91.044L91.044,100.944L100.944,83.799L83.799,73.9Z" style="fill:rgb(46,40,132);fill-rule:nonzero;"/>
                    <path d="M73.9,68.185L73.9,79.615L83.799,73.9L73.9,68.185Z" style="fill:rgb(43,37,122);fill-rule:nonzero;"/>
                    <path d="M36.956,100.944L42.67,110.844L54.1,110.844L54.1,91.044L36.956,100.944Z" style="fill:rgb(40,34,113);fill-rule:nonzero;"/>
                    <path d="M64,85.33L54.1,91.044L54.1,110.844L73.9,110.844L73.9,91.044L64,85.329L64,85.33Z" style="fill:rgb(43,37,122);fill-rule:nonzero;"/>
                    <path d="M64,85.33L73.9,91.044L73.9,79.615L64,85.33Z" style="fill:rgb(40,34,113);fill-rule:nonzero;"/>
                    <path d="M44.201,73.9L27.056,83.799L36.956,100.944L54.1,91.044L54.1,79.615L44.201,73.9Z" style="fill:rgb(40,34,113);fill-rule:nonzero;"/>
                    <path d="M54.1,79.615L54.1,91.044L64,85.329L54.1,79.615Z" style="fill:rgb(40,34,113);fill-rule:nonzero;"/>
                    <path d="M44.201,73.9L54.1,79.615L54.1,68.185L44.201,73.9Z" style="fill:rgb(40,34,113);fill-rule:nonzero;"/>
                    <path d="M64,62.47L54.1,68.185L54.1,79.615L64,85.329L73.9,79.615L73.9,68.185L64,62.47Z" style="fill:rgb(37,31,104);fill-rule:nonzero;"/>
                </g>
            </g>
        </g>
    </g>
    <defs>
        <linearGradient id="_Linear1" x1="0" y1="0" x2="1" y2="0" gradientUnits="userSpaceOnUse" gradientTransform="matrix(9.04941e-15,147.788,-147.788,9.04941e-15,64,1.42109e-14)"><stop offset="0" style="stop-color:rgb(87,76,250);stop-opacity:1"/><stop offset="0.54" style="stop-color:rgb(48,41,138);stop-opacity:1"/><stop offset="1" style="stop-color:rgb(33,28,95);stop-opacity:1"/></linearGradient>
    </defs>
</svg>
