<svg width="1000" height="1000" xmlns="http://www.w3.org/2000/svg">
<path d="M500.065 0.580811L67.0127 250.561V750.602L500.065 1000.58L933.118 750.602V250.561L500.065 0.580811Z" fill="url(#paint0_linear)"/>
<path d="M933.005 750.621V250.581L788.6 500.641L933.005 750.621Z" fill="#F8B564"/>
<path d="M500.065 0.580811L644.384 250.561L933.005 250.581L500.065 0.580811Z" fill="#A680B0"/>
<path d="M644.384 250.561L788.6 500.641L933.005 250.581L644.384 250.561Z" fill="#D09B89"/>
<path d="M500.065 0.580811L66.9199 250.581L355.736 250.561L500.065 0.580811Z" fill="#5147E8"/>
<path d="M500.065 0.580811L355.736 250.561H644.384L500.065 0.580811Z" fill="#574CFA"/>
<path d="M644.384 250.561H566.967C566.967 250.561 567.014 384.586 566.966 384.586C567.014 384.586 682.923 317.478 682.923 317.478L644.384 250.561Z" fill="#6354EF"/>
<path d="M66.9199 250.581V750.621C66.9199 750.621 211.328 500.645 211.326 500.645C211.328 500.645 66.9199 250.581 66.9199 250.581Z" fill="#4139B9"/>
<path d="M355.736 250.561L66.9199 250.581C66.9199 250.581 211.323 500.645 211.326 500.645C211.323 500.645 355.736 250.561 355.736 250.561Z" fill="#443BC2"/>
<path d="M355.736 250.561C355.736 250.561 317.014 317.524 316.967 317.524C317.014 317.524 433.013 384.55 433.013 384.55L432.921 250.561H355.736Z" fill="#473ECB"/>
<path d="M432.921 250.561L433.013 384.55L500.001 423.243C500.001 423.243 566.945 384.586 566.966 384.586C566.945 384.586 566.967 250.561 566.967 250.561H432.921Z" fill="#4A41D5"/>
<path d="M500.065 1000.56L355.736 750.581L66.9199 750.621L500.065 1000.56Z" fill="#342E96"/>
<path d="M355.736 750.581C355.736 750.581 211.328 500.645 211.326 500.645C211.328 500.645 66.9199 750.621 66.9199 750.621L355.736 750.581Z" fill="#3A33A7"/>
<path d="M249.88 433.686C249.88 433.686 211.323 500.645 211.326 500.645C211.323 500.645 249.88 567.657 249.88 567.657C249.88 567.657 365.993 500.581 365.996 500.581C365.993 500.581 249.88 433.686 249.88 433.686Z" fill="#3E36B0"/>
<path d="M316.967 317.524C316.92 317.524 249.88 433.686 249.88 433.686C249.88 433.686 365.993 500.581 365.996 500.581C365.993 500.581 433.013 461.912 433.015 461.912C433.013 461.912 433.013 384.55 433.013 384.55C433.013 384.55 316.92 317.524 316.967 317.524Z" fill="#3E36B0"/>
<path d="M433.013 384.55C433.013 384.55 433.013 461.912 433.015 461.912C433.013 461.912 500 423.243 500.001 423.243C500 423.243 433.013 384.55 433.013 384.55Z" fill="#3E36B0"/>
<path d="M933.005 750.621H644.361L500.065 1000.56L933.005 750.621Z" fill="#251F68"/>
<path d="M933.005 750.621L788.6 500.641L644.361 750.621H933.005Z" fill="#3E36B0"/>
<path d="M750.069 433.686C750.069 433.686 633.898 500.581 633.895 500.581C633.898 500.581 750.069 567.657 750.069 567.657L788.6 500.641L750.069 433.686Z" fill="#38319F"/>
<path d="M682.923 317.478C682.923 317.478 567.014 384.586 566.966 384.586C567.014 384.586 566.987 461.913 566.987 461.913C566.987 461.913 633.893 500.581 633.895 500.581C633.893 500.581 750.069 433.686 750.069 433.686L682.923 317.478Z" fill="#38319F"/>
<path d="M500.001 423.243L566.987 461.913C566.987 461.913 566.918 384.586 566.966 384.586C566.918 384.586 500.001 423.243 500.001 423.243Z" fill="#342E96"/>
<path d="M644.361 750.621L355.736 750.581L500.065 1000.56L644.361 750.621Z" fill="#211C5F"/>
<path d="M683.041 683.585L566.987 616.646V750.621H644.361L683.041 683.585Z" fill="#312B8D"/>
<path d="M633.895 500.581C633.898 500.581 566.987 539.255 566.987 539.255V616.646L683.041 683.585L750.069 567.657C750.069 567.657 633.898 500.581 633.895 500.581Z" fill="#2E2884"/>
<path d="M566.987 461.913V539.255C566.987 539.255 633.893 500.581 633.895 500.581C633.893 500.581 566.987 461.913 566.987 461.913Z" fill="#2B257A"/>
<path d="M316.967 683.556C317.014 683.556 355.736 750.581 355.736 750.581C355.736 750.581 433.013 750.621 433.016 750.621C433.013 750.621 433.013 616.645 433.016 616.645C433.013 616.645 317.014 683.556 316.967 683.556Z" fill="#282271"/>
<path d="M500.001 577.919C500.001 577.919 433.018 616.645 433.016 616.645C433.018 616.645 433.018 750.621 433.016 750.621H566.987V616.646L500.001 577.919Z" fill="#2B257A"/>
<path d="M500.001 577.919C500 577.919 566.987 616.646 566.987 616.646V539.255C566.987 539.255 500 577.919 500.001 577.919Z" fill="#282271"/>
<path d="M365.996 500.581C365.993 500.581 249.88 567.657 249.88 567.657C249.88 567.657 316.92 683.556 316.967 683.556C316.92 683.556 433.018 616.645 433.016 616.645C433.018 616.645 433.013 539.256 433.016 539.256C433.013 539.256 365.993 500.581 365.996 500.581Z" fill="#282271"/>
<path d="M433.016 539.256C433.018 539.256 433.018 616.645 433.016 616.645C433.018 616.645 500.001 577.919 500.001 577.919C500.001 577.919 433.018 539.256 433.016 539.256Z" fill="#282271"/>
<path d="M365.996 500.581C365.998 500.581 433.013 539.256 433.016 539.256C433.013 539.256 433.013 461.912 433.015 461.912C433.013 461.912 365.998 500.581 365.996 500.581Z" fill="#282271"/>
<path d="M500.001 423.242C500 423.242 433.018 461.912 433.016 461.912C433.018 461.912 433.018 539.255 433.016 539.255C433.018 539.255 500 577.919 500.001 577.919C500 577.919 566.987 539.254 566.987 539.254V461.913C566.987 461.913 500 423.242 500.001 423.242Z" fill="#251F68"/>
<defs>
<linearGradient id="paint0_linear" x1="500.065" y1="0.580811" x2="500.065" y2="1000.58" gradientUnits="userSpaceOnUse">
<stop stop-color="#574CFA"/>
<stop offset="0.54" stop-color="#30298A"/>
<stop offset="1" stop-color="#211C5F"/>
</linearGradient>
</defs>
</svg>
