<?xml version="1.0" encoding="UTF-8" standalone="no"?>
<!DOCTYPE svg PUBLIC "-//W3C//DTD SVG 1.1//EN" "http://www.w3.org/Graphics/SVG/1.1/DTD/svg11.dtd">
<svg width="100%" height="100%" viewBox="0 0 256 256" version="1.1" xmlns="http://www.w3.org/2000/svg" xmlns:xlink="http://www.w3.org/1999/xlink" xml:space="preserve" xmlns:serif="http://www.serif.com/" style="fill-rule:evenodd;clip-rule:evenodd;stroke-linejoin:round;stroke-miterlimit:2;">
    <g id="Pixel-Perfect-Dark" serif:id="Pixel Perfect Dark" transform="matrix(1.73611,0,0,1.73611,-1224.1,-1104.09)">
        <g transform="matrix(1.63884,0,0,1.63884,-500.622,-397.958)">
            <path d="M780.695,631.936L818.742,653.903L818.742,697.837L780.695,719.803L742.647,697.837L742.647,653.903L780.695,631.936Z" style="fill:rgb(42,42,103);"/>
        </g>
        <g transform="matrix(2.18395,0,0,2.18395,745.13,650.492)">
            <rect x="11.005" y="10.62" width="32.968" height="32.968" style="fill:rgb(255,178,174);"/>
        </g>
        <g transform="matrix(-1.09197,1.89135,-1.89135,-1.09197,873.269,664.466)">
            <rect x="11.005" y="10.62" width="32.968" height="32.968" style="fill:rgb(240,144,163);fill-opacity:0.8;"/>
        </g>
        <g transform="matrix(1.09197,1.89135,1.89135,-1.09197,684.354,664.466)">
            <rect x="11.005" y="10.62" width="32.968" height="32.968" style="fill:rgb(141,92,131);fill-opacity:0.8;"/>
        </g>
        <g transform="matrix(2.18395,0,0,2.18395,692.422,650.492)">
            <path d="M43.973,10.62L11.005,10.62L11.005,43.588L43.973,43.588L43.973,19.454L43.973,18.153L43.973,10.62Z" style="fill:rgb(92,59,113);fill-opacity:0.8;"/>
        </g>
        <g transform="matrix(1.09197,-1.89135,1.89135,1.09197,684.354,754.904)">
            <rect x="11.005" y="10.62" width="32.968" height="32.968" style="fill:rgb(59,40,79);fill-opacity:0.8;"/>
        </g>
        <g transform="matrix(-1.09197,-1.89135,-1.89135,1.09197,873.269,754.904)">
            <rect x="11.005" y="10.62" width="32.968" height="32.968" style="fill:rgb(41,30,60);fill-opacity:0.8;"/>
        </g>
    </g>
</svg>
